<mxfile host="app.diagrams.net" modified="2020-11-17T15:01:53.283Z" agent="5.0 (Macintosh; Intel Mac OS X 10_14_6) AppleWebKit/537.36 (KHTML, like Gecko) Chrome/86.0.4240.198 Safari/537.36" etag="3WLNslTF7EzcXqLNdo8W" version="13.9.9" type="github">
  <diagram id="E6UDTMIK5SfPo9EAQP29" name="Page-1">
    <mxGraphModel dx="3711" dy="1598" grid="1" gridSize="10" guides="1" tooltips="1" connect="1" arrows="1" fold="1" page="1" pageScale="1" pageWidth="1169" pageHeight="826" math="0" shadow="0">
      <root>
        <mxCell id="0" />
        <mxCell id="1" parent="0" />
        <mxCell id="xRANGXOFlQ8uoqTKwq2T-1" value="" style="ellipse;html=1;shape=startState;fillColor=#000000;strokeColor=#ff0000;" parent="1" vertex="1">
          <mxGeometry x="410" y="-636" width="30" height="30" as="geometry" />
        </mxCell>
        <mxCell id="xRANGXOFlQ8uoqTKwq2T-8" value="" style="edgeStyle=orthogonalEdgeStyle;rounded=0;orthogonalLoop=1;jettySize=auto;html=1;" parent="1" target="xRANGXOFlQ8uoqTKwq2T-7" edge="1">
          <mxGeometry relative="1" as="geometry">
            <mxPoint x="430" y="-613" as="sourcePoint" />
          </mxGeometry>
        </mxCell>
        <mxCell id="xRANGXOFlQ8uoqTKwq2T-10" value="" style="edgeStyle=orthogonalEdgeStyle;rounded=0;orthogonalLoop=1;jettySize=auto;html=1;" parent="1" target="ouW_fzpy-MnYri31NkzG-50" edge="1">
          <mxGeometry relative="1" as="geometry">
            <mxPoint x="430" y="-270" as="sourcePoint" />
            <mxPoint x="460" y="1040" as="targetPoint" />
          </mxGeometry>
        </mxCell>
        <mxCell id="ouW_fzpy-MnYri31NkzG-12" style="edgeStyle=orthogonalEdgeStyle;rounded=0;orthogonalLoop=1;jettySize=auto;html=1;entryX=0.5;entryY=0;entryDx=0;entryDy=0;" parent="1" target="ouW_fzpy-MnYri31NkzG-9" edge="1">
          <mxGeometry relative="1" as="geometry">
            <mxPoint x="430" y="-310" as="targetPoint" />
            <mxPoint x="430" y="-410" as="sourcePoint" />
          </mxGeometry>
        </mxCell>
        <mxCell id="xRANGXOFlQ8uoqTKwq2T-7" value="配置成功(S_config_finished)" style="html=1;" parent="1" vertex="1">
          <mxGeometry x="375" y="-463" width="110" height="50" as="geometry" />
        </mxCell>
        <mxCell id="ouW_fzpy-MnYri31NkzG-66" style="edgeStyle=orthogonalEdgeStyle;rounded=0;orthogonalLoop=1;jettySize=auto;html=1;" parent="1" source="xRANGXOFlQ8uoqTKwq2T-9" edge="1">
          <mxGeometry relative="1" as="geometry">
            <mxPoint x="430.5" y="1301" as="targetPoint" />
          </mxGeometry>
        </mxCell>
        <mxCell id="xRANGXOFlQ8uoqTKwq2T-9" value="应用元数据创建成功(S_collection_metadata_succeed)" style="html=1;" parent="1" vertex="1">
          <mxGeometry x="375.5" y="1116" width="110" height="50" as="geometry" />
        </mxCell>
        <mxCell id="ouW_fzpy-MnYri31NkzG-60" style="edgeStyle=orthogonalEdgeStyle;rounded=0;orthogonalLoop=1;jettySize=auto;html=1;entryX=1;entryY=0.5;entryDx=0;entryDy=0;" parent="1" source="xRANGXOFlQ8uoqTKwq2T-11" target="ouW_fzpy-MnYri31NkzG-50" edge="1">
          <mxGeometry relative="1" as="geometry">
            <Array as="points">
              <mxPoint x="1020" y="1060" />
              <mxPoint x="1020" y="740" />
              <mxPoint x="653" y="740" />
              <mxPoint x="653" y="645" />
            </Array>
          </mxGeometry>
        </mxCell>
        <mxCell id="xRANGXOFlQ8uoqTKwq2T-11" value="应用元数据创建失败(S_collection_metadata_failed)" style="html=1;" parent="1" vertex="1">
          <mxGeometry x="820.5" y="1035" width="110" height="50" as="geometry" />
        </mxCell>
        <mxCell id="pfTwy-6_xwasAA1-WFlj-40" value="&lt;font color=&quot;#ff0000&quot;&gt;用户配置schema信息,全量信息&lt;/font&gt;" style="text;html=1;align=center;verticalAlign=middle;resizable=0;points=[];autosize=1;" parent="1" vertex="1">
          <mxGeometry x="350" y="-563" width="180" height="20" as="geometry" />
        </mxCell>
        <mxCell id="pfTwy-6_xwasAA1-WFlj-41" value="&lt;br&gt;&amp;nbsp; &amp;nbsp; &amp;nbsp; &amp;nbsp; &amp;nbsp; &amp;nbsp; &amp;nbsp;执行操作:上传solr配置文件,创建collection失败" style="text;html=1;align=center;verticalAlign=middle;resizable=0;points=[];autosize=1;" parent="1" vertex="1">
          <mxGeometry x="620" y="770" width="300" height="30" as="geometry" />
        </mxCell>
        <mxCell id="pfTwy-6_xwasAA1-WFlj-42" value="&lt;br&gt;&lt;span style=&quot;color: rgb(255 , 0 , 0)&quot;&gt;&lt;br&gt;&lt;/span&gt;上传solr配置文件或者创建collection成功" style="text;html=1;align=center;verticalAlign=middle;resizable=0;points=[];autosize=1;" parent="1" vertex="1">
          <mxGeometry x="325.5" y="1021" width="230" height="50" as="geometry" />
        </mxCell>
        <mxCell id="pfTwy-6_xwasAA1-WFlj-80" value="&lt;font color=&quot;#ff0000&quot;&gt;E_&lt;/font&gt;&lt;span style=&quot;color: rgb(255 , 0 , 0)&quot;&gt;recreate&lt;/span&gt;&lt;font color=&quot;#ff0000&quot;&gt;&lt;br&gt;collection_metadata&lt;br&gt;&lt;/font&gt;执行操作:上传solr配置文件,创建collection失败&lt;font color=&quot;#ff0000&quot;&gt;&lt;br&gt;&lt;/font&gt;" style="text;html=1;align=center;verticalAlign=middle;resizable=0;points=[];autosize=1;" parent="1" vertex="1">
          <mxGeometry x="785.5" y="680" width="260" height="50" as="geometry" />
        </mxCell>
        <mxCell id="ouW_fzpy-MnYri31NkzG-7" style="edgeStyle=orthogonalEdgeStyle;rounded=0;orthogonalLoop=1;jettySize=auto;html=1;entryX=1;entryY=0.5;entryDx=0;entryDy=0;" parent="1" source="ouW_fzpy-MnYri31NkzG-1" target="ouW_fzpy-MnYri31NkzG-8" edge="1">
          <mxGeometry relative="1" as="geometry">
            <mxPoint x="240" y="-20" as="targetPoint" />
          </mxGeometry>
        </mxCell>
        <mxCell id="ouW_fzpy-MnYri31NkzG-1" value="是否dts?" style="rhombus;whiteSpace=wrap;html=1;" parent="1" vertex="1">
          <mxGeometry x="389" y="-140" width="80" height="80" as="geometry" />
        </mxCell>
        <mxCell id="ouW_fzpy-MnYri31NkzG-3" value="是" style="rounded=0;whiteSpace=wrap;html=1;" parent="1" vertex="1">
          <mxGeometry x="325" y="-130" width="20" height="20" as="geometry" />
        </mxCell>
        <mxCell id="ouW_fzpy-MnYri31NkzG-4" value="否" style="rounded=0;whiteSpace=wrap;html=1;" parent="1" vertex="1">
          <mxGeometry x="445" y="-50" width="20" height="20" as="geometry" />
        </mxCell>
        <mxCell id="ouW_fzpy-MnYri31NkzG-16" style="edgeStyle=orthogonalEdgeStyle;rounded=0;orthogonalLoop=1;jettySize=auto;html=1;entryX=0.5;entryY=0;entryDx=0;entryDy=0;" parent="1" source="ouW_fzpy-MnYri31NkzG-8" edge="1">
          <mxGeometry relative="1" as="geometry">
            <mxPoint x="-8" y="-5" as="targetPoint" />
          </mxGeometry>
        </mxCell>
        <mxCell id="ouW_fzpy-MnYri31NkzG-8" value="部署增量dts中(S_dts_delta_deploying)" style="html=1;" parent="1" vertex="1">
          <mxGeometry x="-63" y="-125" width="110" height="50" as="geometry" />
        </mxCell>
        <mxCell id="ouW_fzpy-MnYri31NkzG-9" value="激活中(S_activating)" style="html=1;" parent="1" vertex="1">
          <mxGeometry x="375" y="-300" width="110" height="50" as="geometry" />
        </mxCell>
        <mxCell id="ouW_fzpy-MnYri31NkzG-13" value="&lt;font color=&quot;#ff0000&quot;&gt;E-activate&lt;/font&gt;" style="text;html=1;align=center;verticalAlign=middle;resizable=0;points=[];autosize=1;" parent="1" vertex="1">
          <mxGeometry x="445.5" y="-360" width="70" height="20" as="geometry" />
        </mxCell>
        <mxCell id="ouW_fzpy-MnYri31NkzG-21" value="" style="edgeStyle=orthogonalEdgeStyle;rounded=0;orthogonalLoop=1;jettySize=auto;html=1;" parent="1" source="ouW_fzpy-MnYri31NkzG-19" target="ouW_fzpy-MnYri31NkzG-20" edge="1">
          <mxGeometry relative="1" as="geometry" />
        </mxCell>
        <mxCell id="ouW_fzpy-MnYri31NkzG-24" value="" style="edgeStyle=orthogonalEdgeStyle;rounded=0;orthogonalLoop=1;jettySize=auto;html=1;" parent="1" source="ouW_fzpy-MnYri31NkzG-19" target="ouW_fzpy-MnYri31NkzG-23" edge="1">
          <mxGeometry relative="1" as="geometry" />
        </mxCell>
        <mxCell id="ouW_fzpy-MnYri31NkzG-19" value="是否成功?" style="rhombus;whiteSpace=wrap;html=1;" parent="1" vertex="1">
          <mxGeometry x="-48" y="-5" width="80" height="80" as="geometry" />
        </mxCell>
        <mxCell id="ouW_fzpy-MnYri31NkzG-27" value="" style="edgeStyle=orthogonalEdgeStyle;rounded=0;orthogonalLoop=1;jettySize=auto;html=1;" parent="1" source="ouW_fzpy-MnYri31NkzG-20" target="ouW_fzpy-MnYri31NkzG-26" edge="1">
          <mxGeometry relative="1" as="geometry" />
        </mxCell>
        <mxCell id="ouW_fzpy-MnYri31NkzG-20" value="&lt;span&gt;增量dts部署成功(S_dts_delta_deployed_success)&lt;/span&gt;" style="whiteSpace=wrap;html=1;" parent="1" vertex="1">
          <mxGeometry x="-228" y="5" width="120" height="60" as="geometry" />
        </mxCell>
        <mxCell id="ouW_fzpy-MnYri31NkzG-22" value="是" style="rounded=0;whiteSpace=wrap;html=1;" parent="1" vertex="1">
          <mxGeometry x="-83" y="5" width="20" height="20" as="geometry" />
        </mxCell>
        <mxCell id="ouW_fzpy-MnYri31NkzG-29" style="edgeStyle=orthogonalEdgeStyle;rounded=0;orthogonalLoop=1;jettySize=auto;html=1;entryX=0.5;entryY=0;entryDx=0;entryDy=0;" parent="1" source="ouW_fzpy-MnYri31NkzG-23" target="ouW_fzpy-MnYri31NkzG-8" edge="1">
          <mxGeometry relative="1" as="geometry">
            <Array as="points">
              <mxPoint x="157" y="-200" />
              <mxPoint x="-8" y="-200" />
            </Array>
          </mxGeometry>
        </mxCell>
        <mxCell id="ouW_fzpy-MnYri31NkzG-23" value="增量dts部署失败(S_dts_delta_deployed_fail)" style="whiteSpace=wrap;html=1;" parent="1" vertex="1">
          <mxGeometry x="92" y="5" width="120" height="60" as="geometry" />
        </mxCell>
        <mxCell id="ouW_fzpy-MnYri31NkzG-25" value="否" style="rounded=0;whiteSpace=wrap;html=1;" parent="1" vertex="1">
          <mxGeometry x="47" y="10" width="20" height="15" as="geometry" />
        </mxCell>
        <mxCell id="ouW_fzpy-MnYri31NkzG-32" value="" style="edgeStyle=orthogonalEdgeStyle;rounded=0;orthogonalLoop=1;jettySize=auto;html=1;" parent="1" source="ouW_fzpy-MnYri31NkzG-26" target="ouW_fzpy-MnYri31NkzG-31" edge="1">
          <mxGeometry relative="1" as="geometry">
            <Array as="points">
              <mxPoint x="-168" y="250" />
              <mxPoint x="-168" y="250" />
            </Array>
          </mxGeometry>
        </mxCell>
        <mxCell id="ouW_fzpy-MnYri31NkzG-26" value="部署全量dts中(S_dts_full_deploying)" style="whiteSpace=wrap;html=1;" parent="1" vertex="1">
          <mxGeometry x="-228" y="145" width="120" height="60" as="geometry" />
        </mxCell>
        <mxCell id="ouW_fzpy-MnYri31NkzG-30" value="&lt;font color=&quot;#ff0000&quot;&gt;E_&lt;/font&gt;&lt;span style=&quot;color: rgb(255 , 0 , 0)&quot;&gt;redeploy_&lt;/span&gt;&lt;font color=&quot;#ff0000&quot;&gt;&lt;br&gt;dts_delta&lt;/font&gt;" style="text;html=1;align=center;verticalAlign=middle;resizable=0;points=[];autosize=1;" parent="1" vertex="1">
          <mxGeometry x="27" y="-250" width="80" height="30" as="geometry" />
        </mxCell>
        <mxCell id="ouW_fzpy-MnYri31NkzG-35" value="" style="edgeStyle=orthogonalEdgeStyle;rounded=0;orthogonalLoop=1;jettySize=auto;html=1;" parent="1" source="ouW_fzpy-MnYri31NkzG-31" target="ouW_fzpy-MnYri31NkzG-34" edge="1">
          <mxGeometry relative="1" as="geometry" />
        </mxCell>
        <mxCell id="ouW_fzpy-MnYri31NkzG-42" value="" style="edgeStyle=orthogonalEdgeStyle;rounded=0;orthogonalLoop=1;jettySize=auto;html=1;" parent="1" source="ouW_fzpy-MnYri31NkzG-31" target="ouW_fzpy-MnYri31NkzG-41" edge="1">
          <mxGeometry relative="1" as="geometry" />
        </mxCell>
        <mxCell id="ouW_fzpy-MnYri31NkzG-31" value="是否成功?" style="rhombus;whiteSpace=wrap;html=1;" parent="1" vertex="1">
          <mxGeometry x="-208" y="270" width="80" height="80" as="geometry" />
        </mxCell>
        <mxCell id="ouW_fzpy-MnYri31NkzG-33" value="否" style="rounded=0;whiteSpace=wrap;html=1;" parent="1" vertex="1">
          <mxGeometry x="-108" y="280" width="20" height="20" as="geometry" />
        </mxCell>
        <mxCell id="ouW_fzpy-MnYri31NkzG-44" style="edgeStyle=orthogonalEdgeStyle;rounded=0;orthogonalLoop=1;jettySize=auto;html=1;entryX=0.75;entryY=0;entryDx=0;entryDy=0;" parent="1" source="ouW_fzpy-MnYri31NkzG-34" target="ouW_fzpy-MnYri31NkzG-26" edge="1">
          <mxGeometry relative="1" as="geometry">
            <Array as="points">
              <mxPoint x="-8" y="110" />
              <mxPoint x="-138" y="110" />
            </Array>
          </mxGeometry>
        </mxCell>
        <mxCell id="ouW_fzpy-MnYri31NkzG-34" value="&lt;span&gt;全量dts部署失败(S_dts_full_deployed_fail)&lt;/span&gt;" style="whiteSpace=wrap;html=1;" parent="1" vertex="1">
          <mxGeometry x="-68" y="280" width="120" height="60" as="geometry" />
        </mxCell>
        <mxCell id="ouW_fzpy-MnYri31NkzG-58" style="edgeStyle=orthogonalEdgeStyle;rounded=0;orthogonalLoop=1;jettySize=auto;html=1;" parent="1" source="ouW_fzpy-MnYri31NkzG-41" edge="1">
          <mxGeometry relative="1" as="geometry">
            <mxPoint x="430" y="444" as="targetPoint" />
            <Array as="points">
              <mxPoint x="-330" y="444" />
            </Array>
          </mxGeometry>
        </mxCell>
        <mxCell id="ouW_fzpy-MnYri31NkzG-61" value="" style="edgeStyle=orthogonalEdgeStyle;rounded=0;orthogonalLoop=1;jettySize=auto;html=1;" parent="1" source="ouW_fzpy-MnYri31NkzG-41" target="ouW_fzpy-MnYri31NkzG-43" edge="1">
          <mxGeometry relative="1" as="geometry" />
        </mxCell>
        <mxCell id="ouW_fzpy-MnYri31NkzG-41" value="&lt;span&gt;全量dts部署成功(S_dts_full_deployed_succeed)&lt;/span&gt;" style="whiteSpace=wrap;html=1;" parent="1" vertex="1">
          <mxGeometry x="-388" y="280" width="120" height="60" as="geometry" />
        </mxCell>
        <mxCell id="ouW_fzpy-MnYri31NkzG-43" value="是" style="rounded=0;whiteSpace=wrap;html=1;" parent="1" vertex="1">
          <mxGeometry x="-248" y="280" width="20" height="20" as="geometry" />
        </mxCell>
        <mxCell id="ouW_fzpy-MnYri31NkzG-45" value="&lt;font color=&quot;#ff0000&quot;&gt;E_redeploy_dts_full&lt;/font&gt;" style="text;html=1;align=center;verticalAlign=middle;resizable=0;points=[];autosize=1;" parent="1" vertex="1">
          <mxGeometry x="-93" y="125" width="120" height="20" as="geometry" />
        </mxCell>
        <mxCell id="ouW_fzpy-MnYri31NkzG-53" value="" style="edgeStyle=orthogonalEdgeStyle;rounded=0;orthogonalLoop=1;jettySize=auto;html=1;" parent="1" source="ouW_fzpy-MnYri31NkzG-50" target="ouW_fzpy-MnYri31NkzG-52" edge="1">
          <mxGeometry relative="1" as="geometry" />
        </mxCell>
        <mxCell id="ouW_fzpy-MnYri31NkzG-50" value="应用元数据创建中(S_collection_metadata_creating)" style="html=1;" parent="1" vertex="1">
          <mxGeometry x="375.5" y="620" width="110" height="50" as="geometry" />
        </mxCell>
        <mxCell id="ouW_fzpy-MnYri31NkzG-54" style="edgeStyle=orthogonalEdgeStyle;rounded=0;orthogonalLoop=1;jettySize=auto;html=1;" parent="1" source="ouW_fzpy-MnYri31NkzG-52" edge="1">
          <mxGeometry relative="1" as="geometry">
            <mxPoint x="840" y="1030" as="targetPoint" />
          </mxGeometry>
        </mxCell>
        <mxCell id="ouW_fzpy-MnYri31NkzG-55" style="edgeStyle=orthogonalEdgeStyle;rounded=0;orthogonalLoop=1;jettySize=auto;html=1;" parent="1" source="ouW_fzpy-MnYri31NkzG-52" target="xRANGXOFlQ8uoqTKwq2T-9" edge="1">
          <mxGeometry relative="1" as="geometry" />
        </mxCell>
        <mxCell id="ouW_fzpy-MnYri31NkzG-52" value="是否成功?" style="rhombus;whiteSpace=wrap;html=1;" parent="1" vertex="1">
          <mxGeometry x="390.5" y="770" width="80" height="80" as="geometry" />
        </mxCell>
        <mxCell id="ouW_fzpy-MnYri31NkzG-56" value="否" style="text;html=1;align=center;verticalAlign=middle;resizable=0;points=[];autosize=1;" parent="1" vertex="1">
          <mxGeometry x="505" y="760" width="30" height="20" as="geometry" />
        </mxCell>
        <mxCell id="ouW_fzpy-MnYri31NkzG-57" value="是" style="text;html=1;align=center;verticalAlign=middle;resizable=0;points=[];autosize=1;" parent="1" vertex="1">
          <mxGeometry x="385" y="890" width="30" height="20" as="geometry" />
        </mxCell>
        <mxCell id="ouW_fzpy-MnYri31NkzG-59" value="&lt;font color=&quot;#ff0000&quot;&gt;E_finish_dts&lt;/font&gt;" style="text;html=1;align=center;verticalAlign=middle;resizable=0;points=[];autosize=1;" parent="1" vertex="1">
          <mxGeometry x="197" y="403" width="80" height="20" as="geometry" />
        </mxCell>
        <mxCell id="ouW_fzpy-MnYri31NkzG-70" value="" style="edgeStyle=orthogonalEdgeStyle;rounded=0;orthogonalLoop=1;jettySize=auto;html=1;" parent="1" source="ouW_fzpy-MnYri31NkzG-63" target="ouW_fzpy-MnYri31NkzG-69" edge="1">
          <mxGeometry relative="1" as="geometry" />
        </mxCell>
        <mxCell id="ouW_fzpy-MnYri31NkzG-63" value="备份offset中(S_offset_backuping)" style="html=1;" parent="1" vertex="1">
          <mxGeometry x="375.5" y="1311" width="110" height="50" as="geometry" />
        </mxCell>
        <mxCell id="ouW_fzpy-MnYri31NkzG-68" value="&lt;font color=&quot;#ff0000&quot;&gt;E__backup_offset&lt;/font&gt;" style="text;html=1;align=center;verticalAlign=middle;resizable=0;points=[];autosize=1;" parent="1" vertex="1">
          <mxGeometry x="405" y="1211" width="110" height="20" as="geometry" />
        </mxCell>
        <mxCell id="ouW_fzpy-MnYri31NkzG-72" value="" style="edgeStyle=orthogonalEdgeStyle;rounded=0;orthogonalLoop=1;jettySize=auto;html=1;" parent="1" source="ouW_fzpy-MnYri31NkzG-69" target="ouW_fzpy-MnYri31NkzG-71" edge="1">
          <mxGeometry relative="1" as="geometry" />
        </mxCell>
        <mxCell id="ouW_fzpy-MnYri31NkzG-74" value="" style="edgeStyle=orthogonalEdgeStyle;rounded=0;orthogonalLoop=1;jettySize=auto;html=1;" parent="1" source="ouW_fzpy-MnYri31NkzG-69" target="ouW_fzpy-MnYri31NkzG-73" edge="1">
          <mxGeometry relative="1" as="geometry" />
        </mxCell>
        <mxCell id="ouW_fzpy-MnYri31NkzG-69" value="是否成功?" style="rhombus;whiteSpace=wrap;html=1;" parent="1" vertex="1">
          <mxGeometry x="390.5" y="1426" width="80" height="80" as="geometry" />
        </mxCell>
        <mxCell id="ouW_fzpy-MnYri31NkzG-81" style="edgeStyle=orthogonalEdgeStyle;rounded=0;orthogonalLoop=1;jettySize=auto;html=1;entryX=1;entryY=0.5;entryDx=0;entryDy=0;" parent="1" source="ouW_fzpy-MnYri31NkzG-71" target="ouW_fzpy-MnYri31NkzG-63" edge="1">
          <mxGeometry relative="1" as="geometry">
            <Array as="points">
              <mxPoint x="591" y="1336" />
            </Array>
          </mxGeometry>
        </mxCell>
        <mxCell id="ouW_fzpy-MnYri31NkzG-71" value="备份offset失败(S_backup_offset_&lt;br&gt;failed)" style="whiteSpace=wrap;html=1;" parent="1" vertex="1">
          <mxGeometry x="530.5" y="1436" width="120" height="60" as="geometry" />
        </mxCell>
        <mxCell id="ouW_fzpy-MnYri31NkzG-80" value="" style="edgeStyle=orthogonalEdgeStyle;rounded=0;orthogonalLoop=1;jettySize=auto;html=1;" parent="1" source="ouW_fzpy-MnYri31NkzG-73" target="ouW_fzpy-MnYri31NkzG-79" edge="1">
          <mxGeometry relative="1" as="geometry" />
        </mxCell>
        <mxCell id="ouW_fzpy-MnYri31NkzG-73" value="&lt;span&gt;备份offset成功(S_backup_offset_&lt;/span&gt;&lt;br&gt;&lt;span&gt;succeed)&lt;/span&gt;" style="whiteSpace=wrap;html=1;" parent="1" vertex="1">
          <mxGeometry x="210.5" y="1436" width="120" height="60" as="geometry" />
        </mxCell>
        <mxCell id="ouW_fzpy-MnYri31NkzG-75" value="否" style="text;html=1;align=center;verticalAlign=middle;resizable=0;points=[];autosize=1;" parent="1" vertex="1">
          <mxGeometry x="475" y="1441" width="30" height="20" as="geometry" />
        </mxCell>
        <mxCell id="ouW_fzpy-MnYri31NkzG-76" value="是" style="text;html=1;align=center;verticalAlign=middle;resizable=0;points=[];autosize=1;" parent="1" vertex="1">
          <mxGeometry x="355" y="1441" width="30" height="20" as="geometry" />
        </mxCell>
        <mxCell id="ouW_fzpy-MnYri31NkzG-87" value="" style="edgeStyle=orthogonalEdgeStyle;rounded=0;orthogonalLoop=1;jettySize=auto;html=1;" parent="1" source="ouW_fzpy-MnYri31NkzG-79" target="ouW_fzpy-MnYri31NkzG-86" edge="1">
          <mxGeometry relative="1" as="geometry" />
        </mxCell>
        <mxCell id="ouW_fzpy-MnYri31NkzG-79" value="全量文件检查中(S_full_dump_finished_checking)" style="whiteSpace=wrap;html=1;" parent="1" vertex="1">
          <mxGeometry x="210.5" y="1576" width="120" height="60" as="geometry" />
        </mxCell>
        <mxCell id="ouW_fzpy-MnYri31NkzG-82" value="&lt;font color=&quot;#ff0000&quot;&gt;E_rebackup_offset&lt;/font&gt;" style="text;html=1;align=center;verticalAlign=middle;resizable=0;points=[];autosize=1;" parent="1" vertex="1">
          <mxGeometry x="560" y="1361" width="120" height="20" as="geometry" />
        </mxCell>
        <mxCell id="ouW_fzpy-MnYri31NkzG-83" value="&lt;font color=&quot;#ff0000&quot;&gt;E_check_full_dump&lt;/font&gt;" style="text;html=1;align=center;verticalAlign=middle;resizable=0;points=[];autosize=1;" parent="1" vertex="1">
          <mxGeometry x="230" y="1521" width="120" height="20" as="geometry" />
        </mxCell>
        <mxCell id="ouW_fzpy-MnYri31NkzG-89" value="" style="edgeStyle=orthogonalEdgeStyle;rounded=0;orthogonalLoop=1;jettySize=auto;html=1;" parent="1" source="ouW_fzpy-MnYri31NkzG-86" target="ouW_fzpy-MnYri31NkzG-88" edge="1">
          <mxGeometry relative="1" as="geometry" />
        </mxCell>
        <mxCell id="ouW_fzpy-MnYri31NkzG-91" value="" style="edgeStyle=orthogonalEdgeStyle;rounded=0;orthogonalLoop=1;jettySize=auto;html=1;" parent="1" source="ouW_fzpy-MnYri31NkzG-86" target="ouW_fzpy-MnYri31NkzG-90" edge="1">
          <mxGeometry relative="1" as="geometry" />
        </mxCell>
        <mxCell id="ouW_fzpy-MnYri31NkzG-86" value="是否成功?" style="rhombus;whiteSpace=wrap;html=1;" parent="1" vertex="1">
          <mxGeometry x="230.5" y="1706" width="80" height="80" as="geometry" />
        </mxCell>
        <mxCell id="ouW_fzpy-MnYri31NkzG-96" style="edgeStyle=orthogonalEdgeStyle;rounded=0;orthogonalLoop=1;jettySize=auto;html=1;entryX=1;entryY=0.5;entryDx=0;entryDy=0;" parent="1" source="ouW_fzpy-MnYri31NkzG-88" target="ouW_fzpy-MnYri31NkzG-79" edge="1">
          <mxGeometry relative="1" as="geometry">
            <Array as="points">
              <mxPoint x="420" y="1606" />
            </Array>
          </mxGeometry>
        </mxCell>
        <mxCell id="ouW_fzpy-MnYri31NkzG-88" value="&lt;span&gt;全量文件检查失败(S_full_dump_finished_failed)&lt;/span&gt;" style="whiteSpace=wrap;html=1;" parent="1" vertex="1">
          <mxGeometry x="370.5" y="1716" width="120" height="60" as="geometry" />
        </mxCell>
        <mxCell id="ouW_fzpy-MnYri31NkzG-93" value="" style="edgeStyle=orthogonalEdgeStyle;rounded=0;orthogonalLoop=1;jettySize=auto;html=1;" parent="1" source="ouW_fzpy-MnYri31NkzG-90" target="ouW_fzpy-MnYri31NkzG-92" edge="1">
          <mxGeometry relative="1" as="geometry" />
        </mxCell>
        <mxCell id="ouW_fzpy-MnYri31NkzG-90" value="&lt;span&gt;全量文件检查成功(S_full_dump_finished_succeed)&lt;/span&gt;" style="whiteSpace=wrap;html=1;" parent="1" vertex="1">
          <mxGeometry x="50.5" y="1716" width="120" height="60" as="geometry" />
        </mxCell>
        <mxCell id="ouW_fzpy-MnYri31NkzG-99" value="" style="edgeStyle=orthogonalEdgeStyle;rounded=0;orthogonalLoop=1;jettySize=auto;html=1;" parent="1" source="ouW_fzpy-MnYri31NkzG-92" target="ouW_fzpy-MnYri31NkzG-98" edge="1">
          <mxGeometry relative="1" as="geometry" />
        </mxCell>
        <mxCell id="ouW_fzpy-MnYri31NkzG-92" value="&lt;span&gt;全量任务提交中(S_full_job_submitting)&lt;/span&gt;" style="whiteSpace=wrap;html=1;" parent="1" vertex="1">
          <mxGeometry x="50.5" y="1856" width="120" height="60" as="geometry" />
        </mxCell>
        <mxCell id="ouW_fzpy-MnYri31NkzG-94" value="&lt;font color=&quot;#ff0000&quot;&gt;E_submit_full_job&lt;/font&gt;" style="text;html=1;align=center;verticalAlign=middle;resizable=0;points=[];autosize=1;" parent="1" vertex="1">
          <mxGeometry x="125" y="1801" width="110" height="20" as="geometry" />
        </mxCell>
        <mxCell id="ouW_fzpy-MnYri31NkzG-97" value="&lt;font color=&quot;#ff0000&quot;&gt;E_recheck_full_dump&lt;/font&gt;" style="text;html=1;align=center;verticalAlign=middle;resizable=0;points=[];autosize=1;" parent="1" vertex="1">
          <mxGeometry x="425" y="1641" width="130" height="20" as="geometry" />
        </mxCell>
        <mxCell id="ouW_fzpy-MnYri31NkzG-101" value="" style="edgeStyle=orthogonalEdgeStyle;rounded=0;orthogonalLoop=1;jettySize=auto;html=1;" parent="1" source="ouW_fzpy-MnYri31NkzG-98" target="ouW_fzpy-MnYri31NkzG-100" edge="1">
          <mxGeometry relative="1" as="geometry" />
        </mxCell>
        <mxCell id="ouW_fzpy-MnYri31NkzG-103" value="" style="edgeStyle=orthogonalEdgeStyle;rounded=0;orthogonalLoop=1;jettySize=auto;html=1;" parent="1" source="ouW_fzpy-MnYri31NkzG-98" target="ouW_fzpy-MnYri31NkzG-102" edge="1">
          <mxGeometry relative="1" as="geometry" />
        </mxCell>
        <mxCell id="ouW_fzpy-MnYri31NkzG-98" value="是否成功?" style="rhombus;whiteSpace=wrap;html=1;" parent="1" vertex="1">
          <mxGeometry x="70.5" y="1986" width="80" height="80" as="geometry" />
        </mxCell>
        <mxCell id="ouW_fzpy-MnYri31NkzG-108" style="edgeStyle=orthogonalEdgeStyle;rounded=0;orthogonalLoop=1;jettySize=auto;html=1;entryX=1;entryY=0.5;entryDx=0;entryDy=0;" parent="1" source="ouW_fzpy-MnYri31NkzG-100" target="ouW_fzpy-MnYri31NkzG-92" edge="1">
          <mxGeometry relative="1" as="geometry">
            <Array as="points">
              <mxPoint x="280" y="1886" />
            </Array>
          </mxGeometry>
        </mxCell>
        <mxCell id="ouW_fzpy-MnYri31NkzG-100" value="&lt;span&gt;全量任务提交失败(S_full_job_submit_failed)&lt;/span&gt;" style="whiteSpace=wrap;html=1;" parent="1" vertex="1">
          <mxGeometry x="210.5" y="1996" width="120" height="60" as="geometry" />
        </mxCell>
        <mxCell id="ouW_fzpy-MnYri31NkzG-111" value="" style="edgeStyle=orthogonalEdgeStyle;rounded=0;orthogonalLoop=1;jettySize=auto;html=1;" parent="1" source="ouW_fzpy-MnYri31NkzG-102" target="ouW_fzpy-MnYri31NkzG-110" edge="1">
          <mxGeometry relative="1" as="geometry" />
        </mxCell>
        <mxCell id="ouW_fzpy-MnYri31NkzG-102" value="&lt;span&gt;全量任务提交成功(S_full_job_submit_succeed)&lt;/span&gt;" style="whiteSpace=wrap;html=1;" parent="1" vertex="1">
          <mxGeometry x="-109.5" y="1996" width="120" height="60" as="geometry" />
        </mxCell>
        <mxCell id="ouW_fzpy-MnYri31NkzG-104" value="否" style="text;html=1;align=center;verticalAlign=middle;resizable=0;points=[];autosize=1;" parent="1" vertex="1">
          <mxGeometry x="155" y="1991" width="30" height="20" as="geometry" />
        </mxCell>
        <mxCell id="ouW_fzpy-MnYri31NkzG-105" value="是" style="text;html=1;align=center;verticalAlign=middle;resizable=0;points=[];autosize=1;" parent="1" vertex="1">
          <mxGeometry x="35" y="1991" width="30" height="20" as="geometry" />
        </mxCell>
        <mxCell id="ouW_fzpy-MnYri31NkzG-106" value="否" style="text;html=1;align=center;verticalAlign=middle;resizable=0;points=[];autosize=1;" parent="1" vertex="1">
          <mxGeometry x="315" y="1721" width="30" height="20" as="geometry" />
        </mxCell>
        <mxCell id="ouW_fzpy-MnYri31NkzG-107" value="是" style="text;html=1;align=center;verticalAlign=middle;resizable=0;points=[];autosize=1;" parent="1" vertex="1">
          <mxGeometry x="195" y="1711" width="30" height="20" as="geometry" />
        </mxCell>
        <mxCell id="ouW_fzpy-MnYri31NkzG-109" value="&lt;span style=&quot;color: rgb(255 , 0 , 0)&quot;&gt;E_resubmit_full_job&lt;/span&gt;" style="text;html=1;align=center;verticalAlign=middle;resizable=0;points=[];autosize=1;" parent="1" vertex="1">
          <mxGeometry x="300" y="1916" width="120" height="20" as="geometry" />
        </mxCell>
        <mxCell id="ouW_fzpy-MnYri31NkzG-114" value="" style="edgeStyle=orthogonalEdgeStyle;rounded=0;orthogonalLoop=1;jettySize=auto;html=1;" parent="1" source="ouW_fzpy-MnYri31NkzG-110" target="ouW_fzpy-MnYri31NkzG-113" edge="1">
          <mxGeometry relative="1" as="geometry" />
        </mxCell>
        <mxCell id="ouW_fzpy-MnYri31NkzG-110" value="&lt;span&gt;离线全量索引进行中&lt;/span&gt;&lt;span&gt;(S_offline_full_index_running)&lt;/span&gt;" style="whiteSpace=wrap;html=1;" parent="1" vertex="1">
          <mxGeometry x="-109.5" y="2136" width="120" height="60" as="geometry" />
        </mxCell>
        <mxCell id="ouW_fzpy-MnYri31NkzG-112" value="&lt;font color=&quot;#ff0000&quot;&gt;E_run_offline_full_index&lt;/font&gt;" style="text;html=1;align=center;verticalAlign=middle;resizable=0;points=[];autosize=1;" parent="1" vertex="1">
          <mxGeometry x="-45" y="2081" width="140" height="20" as="geometry" />
        </mxCell>
        <mxCell id="ouW_fzpy-MnYri31NkzG-116" value="" style="edgeStyle=orthogonalEdgeStyle;rounded=0;orthogonalLoop=1;jettySize=auto;html=1;" parent="1" source="ouW_fzpy-MnYri31NkzG-113" target="ouW_fzpy-MnYri31NkzG-115" edge="1">
          <mxGeometry relative="1" as="geometry" />
        </mxCell>
        <mxCell id="ouW_fzpy-MnYri31NkzG-118" value="" style="edgeStyle=orthogonalEdgeStyle;rounded=0;orthogonalLoop=1;jettySize=auto;html=1;" parent="1" source="ouW_fzpy-MnYri31NkzG-113" target="ouW_fzpy-MnYri31NkzG-117" edge="1">
          <mxGeometry relative="1" as="geometry" />
        </mxCell>
        <mxCell id="ouW_fzpy-MnYri31NkzG-113" value="&lt;span&gt;是否成功?&lt;/span&gt;" style="rhombus;whiteSpace=wrap;html=1;" parent="1" vertex="1">
          <mxGeometry x="-89.5" y="2266" width="80" height="80" as="geometry" />
        </mxCell>
        <mxCell id="ouW_fzpy-MnYri31NkzG-123" style="edgeStyle=orthogonalEdgeStyle;rounded=0;orthogonalLoop=1;jettySize=auto;html=1;entryX=1;entryY=0.5;entryDx=0;entryDy=0;" parent="1" source="ouW_fzpy-MnYri31NkzG-115" target="ouW_fzpy-MnYri31NkzG-110" edge="1">
          <mxGeometry relative="1" as="geometry">
            <Array as="points">
              <mxPoint x="111" y="2166" />
            </Array>
          </mxGeometry>
        </mxCell>
        <mxCell id="ouW_fzpy-MnYri31NkzG-115" value="离线全量索引进行失败(S_offline_full_index_failed)" style="whiteSpace=wrap;html=1;" parent="1" vertex="1">
          <mxGeometry x="50.5" y="2276" width="120" height="60" as="geometry" />
        </mxCell>
        <mxCell id="ouW_fzpy-MnYri31NkzG-122" value="" style="edgeStyle=orthogonalEdgeStyle;rounded=0;orthogonalLoop=1;jettySize=auto;html=1;" parent="1" source="ouW_fzpy-MnYri31NkzG-117" target="ouW_fzpy-MnYri31NkzG-121" edge="1">
          <mxGeometry relative="1" as="geometry" />
        </mxCell>
        <mxCell id="ouW_fzpy-MnYri31NkzG-117" value="离线全量索引进行成功(S_offline_full_index_succeed)" style="whiteSpace=wrap;html=1;" parent="1" vertex="1">
          <mxGeometry x="-269.5" y="2276" width="120" height="60" as="geometry" />
        </mxCell>
        <mxCell id="ouW_fzpy-MnYri31NkzG-119" value="否" style="text;html=1;align=center;verticalAlign=middle;resizable=0;points=[];autosize=1;" parent="1" vertex="1">
          <mxGeometry x="-5" y="2271" width="30" height="20" as="geometry" />
        </mxCell>
        <mxCell id="ouW_fzpy-MnYri31NkzG-120" value="是" style="text;html=1;align=center;verticalAlign=middle;resizable=0;points=[];autosize=1;" parent="1" vertex="1">
          <mxGeometry x="-135" y="2271" width="30" height="20" as="geometry" />
        </mxCell>
        <mxCell id="ouW_fzpy-MnYri31NkzG-127" value="" style="edgeStyle=orthogonalEdgeStyle;rounded=0;orthogonalLoop=1;jettySize=auto;html=1;" parent="1" source="ouW_fzpy-MnYri31NkzG-121" target="ouW_fzpy-MnYri31NkzG-126" edge="1">
          <mxGeometry relative="1" as="geometry" />
        </mxCell>
        <mxCell id="ouW_fzpy-MnYri31NkzG-121" value="离线全量加载中(S_offline_full_index_loading)" style="whiteSpace=wrap;html=1;" parent="1" vertex="1">
          <mxGeometry x="-269.5" y="2416" width="120" height="60" as="geometry" />
        </mxCell>
        <mxCell id="ouW_fzpy-MnYri31NkzG-124" value="&lt;span style=&quot;color: rgb(255 , 0 , 0)&quot;&gt;E_rerun_offline_full_index&lt;/span&gt;" style="text;html=1;align=center;verticalAlign=middle;resizable=0;points=[];autosize=1;" parent="1" vertex="1">
          <mxGeometry x="110" y="2201" width="150" height="20" as="geometry" />
        </mxCell>
        <mxCell id="ouW_fzpy-MnYri31NkzG-125" value="&lt;span style=&quot;color: rgb(255 , 0 , 0)&quot;&gt;E_load_offline_full_index&lt;/span&gt;" style="text;html=1;align=center;verticalAlign=middle;resizable=0;points=[];autosize=1;" parent="1" vertex="1">
          <mxGeometry x="-195" y="2371" width="150" height="20" as="geometry" />
        </mxCell>
        <mxCell id="ouW_fzpy-MnYri31NkzG-129" value="" style="edgeStyle=orthogonalEdgeStyle;rounded=0;orthogonalLoop=1;jettySize=auto;html=1;" parent="1" source="ouW_fzpy-MnYri31NkzG-126" target="ouW_fzpy-MnYri31NkzG-128" edge="1">
          <mxGeometry relative="1" as="geometry" />
        </mxCell>
        <mxCell id="ouW_fzpy-MnYri31NkzG-131" value="" style="edgeStyle=orthogonalEdgeStyle;rounded=0;orthogonalLoop=1;jettySize=auto;html=1;" parent="1" source="ouW_fzpy-MnYri31NkzG-126" target="ouW_fzpy-MnYri31NkzG-130" edge="1">
          <mxGeometry relative="1" as="geometry" />
        </mxCell>
        <mxCell id="ouW_fzpy-MnYri31NkzG-126" value="&lt;span&gt;是否成功?&lt;/span&gt;" style="rhombus;whiteSpace=wrap;html=1;" parent="1" vertex="1">
          <mxGeometry x="-249.5" y="2546" width="80" height="80" as="geometry" />
        </mxCell>
        <mxCell id="ouW_fzpy-MnYri31NkzG-137" style="edgeStyle=orthogonalEdgeStyle;rounded=0;orthogonalLoop=1;jettySize=auto;html=1;entryX=1;entryY=0.5;entryDx=0;entryDy=0;" parent="1" source="ouW_fzpy-MnYri31NkzG-128" target="ouW_fzpy-MnYri31NkzG-121" edge="1">
          <mxGeometry relative="1" as="geometry">
            <Array as="points">
              <mxPoint x="-49" y="2446" />
            </Array>
          </mxGeometry>
        </mxCell>
        <mxCell id="ouW_fzpy-MnYri31NkzG-128" value="&lt;span&gt;离线全量加载失败(S_load_offline_full_index_failed)&lt;/span&gt;" style="whiteSpace=wrap;html=1;" parent="1" vertex="1">
          <mxGeometry x="-109.5" y="2556" width="120" height="60" as="geometry" />
        </mxCell>
        <mxCell id="ouW_fzpy-MnYri31NkzG-136" value="" style="edgeStyle=orthogonalEdgeStyle;rounded=0;orthogonalLoop=1;jettySize=auto;html=1;" parent="1" source="ouW_fzpy-MnYri31NkzG-130" target="ouW_fzpy-MnYri31NkzG-135" edge="1">
          <mxGeometry relative="1" as="geometry" />
        </mxCell>
        <mxCell id="ouW_fzpy-MnYri31NkzG-130" value="离线全量加载成功(S_load_offline_full_index_succeed)" style="whiteSpace=wrap;html=1;" parent="1" vertex="1">
          <mxGeometry x="-429.5" y="2556" width="120" height="60" as="geometry" />
        </mxCell>
        <mxCell id="ouW_fzpy-MnYri31NkzG-132" value="否" style="text;html=1;align=center;verticalAlign=middle;resizable=0;points=[];autosize=1;" parent="1" vertex="1">
          <mxGeometry x="-155" y="2551" width="30" height="20" as="geometry" />
        </mxCell>
        <mxCell id="ouW_fzpy-MnYri31NkzG-134" value="是" style="text;html=1;align=center;verticalAlign=middle;resizable=0;points=[];autosize=1;" parent="1" vertex="1">
          <mxGeometry x="-275" y="2551" width="30" height="20" as="geometry" />
        </mxCell>
        <mxCell id="ouW_fzpy-MnYri31NkzG-141" value="" style="edgeStyle=orthogonalEdgeStyle;rounded=0;orthogonalLoop=1;jettySize=auto;html=1;" parent="1" source="ouW_fzpy-MnYri31NkzG-135" target="ouW_fzpy-MnYri31NkzG-140" edge="1">
          <mxGeometry relative="1" as="geometry" />
        </mxCell>
        <mxCell id="ouW_fzpy-MnYri31NkzG-135" value="全量同步成功(S_full_index_succeed)" style="whiteSpace=wrap;html=1;" parent="1" vertex="1">
          <mxGeometry x="-429.5" y="2696" width="120" height="60" as="geometry" />
        </mxCell>
        <mxCell id="ouW_fzpy-MnYri31NkzG-138" value="&lt;span style=&quot;color: rgb(255 , 0 , 0)&quot;&gt;E_reload_offline_full_index&lt;/span&gt;" style="text;html=1;align=center;verticalAlign=middle;resizable=0;points=[];autosize=1;" parent="1" vertex="1">
          <mxGeometry x="-35" y="2481" width="160" height="20" as="geometry" />
        </mxCell>
        <mxCell id="ouW_fzpy-MnYri31NkzG-139" value="&lt;span style=&quot;color: rgb(255 , 0 , 0)&quot;&gt;E_sync_full_index&lt;/span&gt;" style="text;html=1;align=center;verticalAlign=middle;resizable=0;points=[];autosize=1;" parent="1" vertex="1">
          <mxGeometry x="-345" y="2651" width="110" height="20" as="geometry" />
        </mxCell>
        <mxCell id="ouW_fzpy-MnYri31NkzG-143" value="" style="edgeStyle=orthogonalEdgeStyle;rounded=0;orthogonalLoop=1;jettySize=auto;html=1;" parent="1" source="ouW_fzpy-MnYri31NkzG-140" target="ouW_fzpy-MnYri31NkzG-142" edge="1">
          <mxGeometry relative="1" as="geometry" />
        </mxCell>
        <mxCell id="ouW_fzpy-MnYri31NkzG-145" value="" style="edgeStyle=orthogonalEdgeStyle;rounded=0;orthogonalLoop=1;jettySize=auto;html=1;" parent="1" source="ouW_fzpy-MnYri31NkzG-140" target="ouW_fzpy-MnYri31NkzG-144" edge="1">
          <mxGeometry relative="1" as="geometry" />
        </mxCell>
        <mxCell id="ouW_fzpy-MnYri31NkzG-140" value="&lt;span&gt;是否实时?&lt;/span&gt;" style="rhombus;whiteSpace=wrap;html=1;" parent="1" vertex="1">
          <mxGeometry x="-409.5" y="2826" width="80" height="80" as="geometry" />
        </mxCell>
        <mxCell id="ouW_fzpy-MnYri31NkzG-142" value="&lt;span&gt;索引同步成功(S_index_succeed)&lt;/span&gt;" style="whiteSpace=wrap;html=1;" parent="1" vertex="1">
          <mxGeometry x="-269.5" y="2836" width="120" height="60" as="geometry" />
        </mxCell>
        <mxCell id="ouW_fzpy-MnYri31NkzG-149" value="" style="edgeStyle=orthogonalEdgeStyle;rounded=0;orthogonalLoop=1;jettySize=auto;html=1;" parent="1" source="ouW_fzpy-MnYri31NkzG-144" target="ouW_fzpy-MnYri31NkzG-148" edge="1">
          <mxGeometry relative="1" as="geometry" />
        </mxCell>
        <mxCell id="ouW_fzpy-MnYri31NkzG-144" value="增量任务提交中(S_delta_job_submitting)" style="whiteSpace=wrap;html=1;" parent="1" vertex="1">
          <mxGeometry x="-589.5" y="2836" width="120" height="60" as="geometry" />
        </mxCell>
        <mxCell id="ouW_fzpy-MnYri31NkzG-146" value="否" style="text;html=1;align=center;verticalAlign=middle;resizable=0;points=[];autosize=1;" parent="1" vertex="1">
          <mxGeometry x="-325" y="2831" width="30" height="20" as="geometry" />
        </mxCell>
        <mxCell id="ouW_fzpy-MnYri31NkzG-147" value="是" style="text;html=1;align=center;verticalAlign=middle;resizable=0;points=[];autosize=1;" parent="1" vertex="1">
          <mxGeometry x="-445" y="2831" width="30" height="20" as="geometry" />
        </mxCell>
        <mxCell id="ouW_fzpy-MnYri31NkzG-151" value="" style="edgeStyle=orthogonalEdgeStyle;rounded=0;orthogonalLoop=1;jettySize=auto;html=1;" parent="1" source="ouW_fzpy-MnYri31NkzG-148" target="ouW_fzpy-MnYri31NkzG-150" edge="1">
          <mxGeometry relative="1" as="geometry" />
        </mxCell>
        <mxCell id="ouW_fzpy-MnYri31NkzG-153" value="" style="edgeStyle=orthogonalEdgeStyle;rounded=0;orthogonalLoop=1;jettySize=auto;html=1;" parent="1" source="ouW_fzpy-MnYri31NkzG-148" target="ouW_fzpy-MnYri31NkzG-152" edge="1">
          <mxGeometry relative="1" as="geometry" />
        </mxCell>
        <mxCell id="ouW_fzpy-MnYri31NkzG-148" value="&lt;span&gt;是否成功?&lt;/span&gt;" style="rhombus;whiteSpace=wrap;html=1;" parent="1" vertex="1">
          <mxGeometry x="-570" y="3111" width="80" height="80" as="geometry" />
        </mxCell>
        <mxCell id="ouW_fzpy-MnYri31NkzG-159" style="edgeStyle=orthogonalEdgeStyle;rounded=0;orthogonalLoop=1;jettySize=auto;html=1;" parent="1" source="ouW_fzpy-MnYri31NkzG-150" edge="1">
          <mxGeometry relative="1" as="geometry">
            <mxPoint x="-500" y="2901" as="targetPoint" />
            <Array as="points">
              <mxPoint x="-370" y="3081" />
              <mxPoint x="-500" y="3081" />
            </Array>
          </mxGeometry>
        </mxCell>
        <mxCell id="ouW_fzpy-MnYri31NkzG-150" value="&lt;span&gt;增量任务提交失败(S_submit_delta_job_failed)&lt;/span&gt;" style="whiteSpace=wrap;html=1;" parent="1" vertex="1">
          <mxGeometry x="-430" y="3121" width="120" height="60" as="geometry" />
        </mxCell>
        <mxCell id="ouW_fzpy-MnYri31NkzG-163" value="" style="edgeStyle=orthogonalEdgeStyle;rounded=0;orthogonalLoop=1;jettySize=auto;html=1;" parent="1" source="ouW_fzpy-MnYri31NkzG-152" target="ouW_fzpy-MnYri31NkzG-162" edge="1">
          <mxGeometry relative="1" as="geometry" />
        </mxCell>
        <mxCell id="ouW_fzpy-MnYri31NkzG-152" value="&lt;span&gt;增量任务提交成功(S_submit_delta_job_succeed)&lt;/span&gt;" style="whiteSpace=wrap;html=1;" parent="1" vertex="1">
          <mxGeometry x="-750" y="3121" width="120" height="60" as="geometry" />
        </mxCell>
        <mxCell id="ouW_fzpy-MnYri31NkzG-154" value="否" style="text;html=1;align=center;verticalAlign=middle;resizable=0;points=[];autosize=1;" parent="1" vertex="1">
          <mxGeometry x="-485.5" y="3116" width="30" height="20" as="geometry" />
        </mxCell>
        <mxCell id="ouW_fzpy-MnYri31NkzG-155" value="是" style="text;html=1;align=center;verticalAlign=middle;resizable=0;points=[];autosize=1;" parent="1" vertex="1">
          <mxGeometry x="-615.5" y="3126" width="30" height="20" as="geometry" />
        </mxCell>
        <mxCell id="ouW_fzpy-MnYri31NkzG-160" value="&lt;span style=&quot;color: rgb(255 , 0 , 0)&quot;&gt;E_resubmit_delta_job&lt;/span&gt;" style="text;html=1;align=center;verticalAlign=middle;resizable=0;points=[];autosize=1;" parent="1" vertex="1">
          <mxGeometry x="-500" y="2991" width="130" height="20" as="geometry" />
        </mxCell>
        <mxCell id="ouW_fzpy-MnYri31NkzG-161" value="&lt;span style=&quot;color: rgb(255 , 0 , 0)&quot;&gt;E_submit_delta_job&lt;/span&gt;" style="text;html=1;align=center;verticalAlign=middle;resizable=0;points=[];autosize=1;" parent="1" vertex="1">
          <mxGeometry x="-675" y="2991" width="120" height="20" as="geometry" />
        </mxCell>
        <mxCell id="ouW_fzpy-MnYri31NkzG-166" value="" style="edgeStyle=orthogonalEdgeStyle;rounded=0;orthogonalLoop=1;jettySize=auto;html=1;" parent="1" source="ouW_fzpy-MnYri31NkzG-162" target="ouW_fzpy-MnYri31NkzG-165" edge="1">
          <mxGeometry relative="1" as="geometry" />
        </mxCell>
        <mxCell id="ouW_fzpy-MnYri31NkzG-179" value="" style="edgeStyle=orthogonalEdgeStyle;orthogonalLoop=1;jettySize=auto;html=1;rounded=0;dashed=1;" parent="1" source="ouW_fzpy-MnYri31NkzG-162" target="ouW_fzpy-MnYri31NkzG-178" edge="1">
          <mxGeometry relative="1" as="geometry">
            <Array as="points">
              <mxPoint x="-690" y="3351" />
              <mxPoint x="-1000" y="3351" />
              <mxPoint x="-1000" y="3431" />
            </Array>
          </mxGeometry>
        </mxCell>
        <mxCell id="ouW_fzpy-MnYri31NkzG-162" value="&lt;span&gt;增量同步中(S_delta_index_syncing)&lt;/span&gt;" style="whiteSpace=wrap;html=1;" parent="1" vertex="1">
          <mxGeometry x="-750" y="3261" width="120" height="60" as="geometry" />
        </mxCell>
        <mxCell id="ouW_fzpy-MnYri31NkzG-164" value="&lt;span style=&quot;color: rgb(255 , 0 , 0)&quot;&gt;E_sync_delta_index&lt;/span&gt;" style="text;html=1;align=center;verticalAlign=middle;resizable=0;points=[];autosize=1;" parent="1" vertex="1">
          <mxGeometry x="-675" y="3211" width="120" height="20" as="geometry" />
        </mxCell>
        <mxCell id="ouW_fzpy-MnYri31NkzG-168" value="" style="edgeStyle=orthogonalEdgeStyle;rounded=0;orthogonalLoop=1;jettySize=auto;html=1;" parent="1" source="ouW_fzpy-MnYri31NkzG-165" target="ouW_fzpy-MnYri31NkzG-167" edge="1">
          <mxGeometry relative="1" as="geometry" />
        </mxCell>
        <mxCell id="ouW_fzpy-MnYri31NkzG-170" value="" style="edgeStyle=orthogonalEdgeStyle;rounded=0;orthogonalLoop=1;jettySize=auto;html=1;" parent="1" source="ouW_fzpy-MnYri31NkzG-165" target="ouW_fzpy-MnYri31NkzG-169" edge="1">
          <mxGeometry relative="1" as="geometry" />
        </mxCell>
        <mxCell id="ouW_fzpy-MnYri31NkzG-165" value="&lt;span&gt;是否成功?&lt;/span&gt;" style="rhombus;whiteSpace=wrap;html=1;" parent="1" vertex="1">
          <mxGeometry x="-730" y="3391" width="80" height="80" as="geometry" />
        </mxCell>
        <mxCell id="ouW_fzpy-MnYri31NkzG-173" style="edgeStyle=orthogonalEdgeStyle;rounded=0;orthogonalLoop=1;jettySize=auto;html=1;entryX=1;entryY=0.5;entryDx=0;entryDy=0;" parent="1" source="ouW_fzpy-MnYri31NkzG-167" target="ouW_fzpy-MnYri31NkzG-162" edge="1">
          <mxGeometry relative="1" as="geometry">
            <Array as="points">
              <mxPoint x="-530" y="3291" />
            </Array>
          </mxGeometry>
        </mxCell>
        <mxCell id="ouW_fzpy-MnYri31NkzG-167" value="&lt;span&gt;增量同步失败(S_sync_delta_index_failed)&lt;/span&gt;" style="whiteSpace=wrap;html=1;" parent="1" vertex="1">
          <mxGeometry x="-590" y="3401" width="120" height="60" as="geometry" />
        </mxCell>
        <mxCell id="ouW_fzpy-MnYri31NkzG-176" value="" style="edgeStyle=orthogonalEdgeStyle;rounded=0;orthogonalLoop=1;jettySize=auto;html=1;" parent="1" source="ouW_fzpy-MnYri31NkzG-169" target="ouW_fzpy-MnYri31NkzG-175" edge="1">
          <mxGeometry relative="1" as="geometry" />
        </mxCell>
        <mxCell id="ouW_fzpy-MnYri31NkzG-180" style="edgeStyle=orthogonalEdgeStyle;rounded=0;orthogonalLoop=1;jettySize=auto;html=1;entryX=1;entryY=0.5;entryDx=0;entryDy=0;dashed=1;" parent="1" source="ouW_fzpy-MnYri31NkzG-169" target="ouW_fzpy-MnYri31NkzG-178" edge="1">
          <mxGeometry relative="1" as="geometry" />
        </mxCell>
        <mxCell id="ouW_fzpy-MnYri31NkzG-169" value="&lt;span&gt;增量同步成功(S_sync_delta_index_succeed)&lt;/span&gt;" style="whiteSpace=wrap;html=1;" parent="1" vertex="1">
          <mxGeometry x="-910" y="3401" width="120" height="60" as="geometry" />
        </mxCell>
        <mxCell id="ouW_fzpy-MnYri31NkzG-171" value="否" style="text;html=1;align=center;verticalAlign=middle;resizable=0;points=[];autosize=1;" parent="1" vertex="1">
          <mxGeometry x="-645" y="3401" width="30" height="20" as="geometry" />
        </mxCell>
        <mxCell id="ouW_fzpy-MnYri31NkzG-172" value="是" style="text;html=1;align=center;verticalAlign=middle;resizable=0;points=[];autosize=1;" parent="1" vertex="1">
          <mxGeometry x="-775" y="3401" width="30" height="20" as="geometry" />
        </mxCell>
        <mxCell id="ouW_fzpy-MnYri31NkzG-174" value="&lt;span style=&quot;color: rgb(255 , 0 , 0)&quot;&gt;E_resync_delta_index&lt;/span&gt;" style="text;html=1;align=center;verticalAlign=middle;resizable=0;points=[];autosize=1;" parent="1" vertex="1">
          <mxGeometry x="-515" y="3311" width="130" height="20" as="geometry" />
        </mxCell>
        <mxCell id="ouW_fzpy-MnYri31NkzG-175" value="&lt;span&gt;索引同步成功(S_index_succeed)&lt;/span&gt;" style="whiteSpace=wrap;html=1;" parent="1" vertex="1">
          <mxGeometry x="-910" y="3541" width="120" height="60" as="geometry" />
        </mxCell>
        <mxCell id="ouW_fzpy-MnYri31NkzG-177" value="&lt;span style=&quot;color: rgb(255 , 0 , 0)&quot;&gt;E_finish_sync_index&lt;/span&gt;" style="text;html=1;align=center;verticalAlign=middle;resizable=0;points=[];autosize=1;" parent="1" vertex="1">
          <mxGeometry x="-845" y="3491" width="120" height="20" as="geometry" />
        </mxCell>
        <mxCell id="ouW_fzpy-MnYri31NkzG-178" value="&lt;span&gt;增量同步暂停(S_sync_delta_index_pause)&lt;/span&gt;" style="whiteSpace=wrap;html=1;" parent="1" vertex="1">
          <mxGeometry x="-1169" y="3401" width="120" height="60" as="geometry" />
        </mxCell>
        <mxCell id="ouW_fzpy-MnYri31NkzG-184" value="" style="endArrow=classic;html=1;" parent="1" edge="1">
          <mxGeometry width="50" height="50" relative="1" as="geometry">
            <mxPoint x="-1110" y="3291" as="sourcePoint" />
            <mxPoint x="-1109.67" y="3401" as="targetPoint" />
          </mxGeometry>
        </mxCell>
        <mxCell id="ouW_fzpy-MnYri31NkzG-185" value="&lt;span style=&quot;color: rgb(255 , 0 , 0)&quot;&gt;E_pause_delta_index&lt;/span&gt;" style="text;html=1;align=center;verticalAlign=middle;resizable=0;points=[];autosize=1;" parent="1" vertex="1">
          <mxGeometry x="-1255" y="3331" width="130" height="20" as="geometry" />
        </mxCell>
        <mxCell id="ouW_fzpy-MnYri31NkzG-189" value="&lt;font color=&quot;#ff0000&quot;&gt;E_deploy_dts_full&lt;/font&gt;" style="text;html=1;align=center;verticalAlign=middle;resizable=0;points=[];autosize=1;" parent="1" vertex="1">
          <mxGeometry x="-293" y="90" width="110" height="20" as="geometry" />
        </mxCell>
      </root>
    </mxGraphModel>
  </diagram>
</mxfile>
